<svg width="139" height="34" viewBox="0 0 139 34" fill="none" xmlns="http://www.w3.org/2000/svg">
<g clip-path="url(#clip0_2956_104971)">
<path d="M9.52525 7.77568C12.9491 11.1957 12.9783 16.9606 12.9783 16.9606C12.9783 16.9606 7.45649 17.1805 4.03268 13.7605C0.608874 10.3405 0.579605 4.57561 0.579605 4.57561C0.579605 4.57561 6.10143 4.35566 9.52525 7.77568Z" fill="#22A45A"/>
<path d="M16.4314 7.77568C13.0076 11.1957 12.9783 16.9606 12.9783 16.9606C12.9783 16.9606 18.5002 17.1805 21.9239 13.7605C25.3477 10.3405 25.377 4.57561 25.377 4.57561C25.377 4.57561 19.8552 4.35566 16.4314 7.77568Z" fill="#22A45A"/>
<path d="M9.52525 26.1409C12.9491 22.7209 12.9783 16.956 12.9783 16.956C12.9783 16.956 7.45649 16.7361 4.03268 20.1561C0.608874 23.5761 0.579605 29.341 0.579605 29.341C0.579605 29.341 6.10143 29.5609 9.52525 26.1409Z" fill="#22A45A"/>
<path d="M16.4314 26.1409C13.0076 22.7209 12.9783 16.956 12.9783 16.956C12.9783 16.956 18.5002 16.7361 21.9239 20.1561C25.3477 23.5761 25.377 29.341 25.377 29.341C25.377 29.341 19.8552 29.5609 16.4314 26.1409Z" fill="#22A45A"/>
</g>
<path d="M38.516 22.336H44.036V25H35.156V8.248H38.516V22.336ZM58.5316 18.064C58.5316 18.544 58.4996 18.976 58.4356 19.36H48.7156C48.7956 20.32 49.1316 21.072 49.7236 21.616C50.3156 22.16 51.0436 22.432 51.9076 22.432C53.1556 22.432 54.0436 21.896 54.5716 20.824H58.1956C57.8116 22.104 57.0756 23.16 55.9876 23.992C54.8996 24.808 53.5636 25.216 51.9796 25.216C50.6996 25.216 49.5476 24.936 48.5236 24.376C47.5156 23.8 46.7236 22.992 46.1476 21.952C45.5876 20.912 45.3076 19.712 45.3076 18.352C45.3076 16.976 45.5876 15.768 46.1476 14.728C46.7076 13.688 47.4916 12.888 48.4996 12.328C49.5076 11.768 50.6676 11.488 51.9796 11.488C53.2436 11.488 54.3716 11.76 55.3636 12.304C56.3716 12.848 57.1476 13.624 57.6916 14.632C58.2516 15.624 58.5316 16.768 58.5316 18.064ZM55.0516 17.104C55.0356 16.24 54.7236 15.552 54.1156 15.04C53.5076 14.512 52.7636 14.248 51.8836 14.248C51.0516 14.248 50.3476 14.504 49.7716 15.016C49.2116 15.512 48.8676 16.208 48.7396 17.104H55.0516ZM60.1201 18.304C60.1201 16.96 60.3841 15.768 60.9121 14.728C61.4561 13.688 62.1841 12.888 63.0961 12.328C64.0241 11.768 65.0561 11.488 66.1921 11.488C67.1841 11.488 68.0481 11.688 68.7841 12.088C69.5361 12.488 70.1361 12.992 70.5841 13.6V11.704H73.9681V25H70.5841V23.056C70.1521 23.68 69.5521 24.2 68.7841 24.616C68.0321 25.016 67.1601 25.216 66.1681 25.216C65.0481 25.216 64.0241 24.928 63.0961 24.352C62.1841 23.776 61.4561 22.968 60.9121 21.928C60.3841 20.872 60.1201 19.664 60.1201 18.304ZM70.5841 18.352C70.5841 17.536 70.4241 16.84 70.1041 16.264C69.7841 15.672 69.3521 15.224 68.8081 14.92C68.2641 14.6 67.6801 14.44 67.0561 14.44C66.4321 14.44 65.8561 14.592 65.3281 14.896C64.8001 15.2 64.3681 15.648 64.0321 16.24C63.7121 16.816 63.5521 17.504 63.5521 18.304C63.5521 19.104 63.7121 19.808 64.0321 20.416C64.3681 21.008 64.8001 21.464 65.3281 21.784C65.8721 22.104 66.4481 22.264 67.0561 22.264C67.6801 22.264 68.2641 22.112 68.8081 21.808C69.3521 21.488 69.7841 21.04 70.1041 20.464C70.4241 19.872 70.5841 19.168 70.5841 18.352ZM80.6098 13.768C81.0418 13.064 81.6018 12.512 82.2898 12.112C82.9938 11.712 83.7938 11.512 84.6898 11.512V15.04H83.8018C82.7458 15.04 81.9458 15.288 81.4018 15.784C80.8738 16.28 80.6098 17.144 80.6098 18.376V25H77.2498V11.704H80.6098V13.768ZM94.3209 11.512C95.9049 11.512 97.1849 12.016 98.1609 13.024C99.1369 14.016 99.6249 15.408 99.6249 17.2V25H96.2649V17.656C96.2649 16.6 96.0009 15.792 95.4729 15.232C94.9449 14.656 94.2249 14.368 93.3129 14.368C92.3849 14.368 91.6489 14.656 91.1049 15.232C90.5769 15.792 90.3129 16.6 90.3129 17.656V25H86.9529V11.704H90.3129V13.36C90.7609 12.784 91.3289 12.336 92.0169 12.016C92.7209 11.68 93.4889 11.512 94.3209 11.512ZM104.524 10.12C103.932 10.12 103.436 9.936 103.036 9.568C102.652 9.184 102.46 8.712 102.46 8.152C102.46 7.592 102.652 7.128 103.036 6.76C103.436 6.376 103.932 6.184 104.524 6.184C105.116 6.184 105.604 6.376 105.988 6.76C106.388 7.128 106.588 7.592 106.588 8.152C106.588 8.712 106.388 9.184 105.988 9.568C105.604 9.936 105.116 10.12 104.524 10.12ZM106.18 11.704V25H102.82V11.704H106.18ZM108.636 18.352C108.636 16.976 108.916 15.776 109.476 14.752C110.036 13.712 110.812 12.912 111.804 12.352C112.796 11.776 113.932 11.488 115.212 11.488C116.86 11.488 118.22 11.904 119.292 12.736C120.38 13.552 121.108 14.704 121.476 16.192H117.852C117.66 15.616 117.332 15.168 116.868 14.848C116.42 14.512 115.86 14.344 115.188 14.344C114.228 14.344 113.468 14.696 112.908 15.4C112.348 16.088 112.068 17.072 112.068 18.352C112.068 19.616 112.348 20.6 112.908 21.304C113.468 21.992 114.228 22.336 115.188 22.336C116.548 22.336 117.436 21.728 117.852 20.512H121.476C121.108 21.952 120.38 23.096 119.292 23.944C118.204 24.792 116.844 25.216 115.212 25.216C113.932 25.216 112.796 24.936 111.804 24.376C110.812 23.8 110.036 23 109.476 21.976C108.916 20.936 108.636 19.728 108.636 18.352ZM129.841 25.216C128.561 25.216 127.409 24.936 126.385 24.376C125.361 23.8 124.553 22.992 123.961 21.952C123.385 20.912 123.097 19.712 123.097 18.352C123.097 16.992 123.393 15.792 123.985 14.752C124.593 13.712 125.417 12.912 126.457 12.352C127.497 11.776 128.657 11.488 129.937 11.488C131.217 11.488 132.377 11.776 133.417 12.352C134.457 12.912 135.273 13.712 135.865 14.752C136.473 15.792 136.777 16.992 136.777 18.352C136.777 19.712 136.465 20.912 135.841 21.952C135.233 22.992 134.401 23.8 133.345 24.376C132.305 24.936 131.137 25.216 129.841 25.216ZM129.841 22.288C130.449 22.288 131.017 22.144 131.545 21.856C132.089 21.552 132.521 21.104 132.841 20.512C133.161 19.92 133.321 19.2 133.321 18.352C133.321 17.088 132.985 16.12 132.313 15.448C131.657 14.76 130.849 14.416 129.889 14.416C128.929 14.416 128.121 14.76 127.465 15.448C126.825 16.12 126.505 17.088 126.505 18.352C126.505 19.616 126.817 20.592 127.441 21.28C128.081 21.952 128.881 22.288 129.841 22.288Z" fill="white"/>
<defs>
<clipPath id="clip0_2956_104971">
<rect width="25" height="25" fill="white" transform="translate(0.5 4.5)"/>
</clipPath>
</defs>
</svg>
