<svg width="150" height="31" viewBox="0 0 150 31" fill="none" xmlns="http://www.w3.org/2000/svg">
<path d="M0.0369873 0.560547H15.037L0.0369873 15.5605V0.560547Z" fill="#697586"/>
<path d="M15.037 15.5605H0.0369873V30.5605H15.037V15.5605Z" fill="#697586"/>
<path d="M39.637 21.6671H49.693V18.9288H42.9583V5.95801H39.637V21.6671Z" fill="#697586"/>
<path d="M56.5063 21.8968C60.0808 21.8968 62.3053 19.4499 62.3053 15.8218C62.3053 12.1707 60.0808 9.73145 56.5063 9.73145C52.9321 9.73145 50.7076 12.1707 50.7076 15.8218C50.7076 19.4499 52.9321 21.8968 56.5063 21.8968ZM56.5216 19.3656C54.8725 19.3656 54.0289 17.8545 54.0289 15.7988C54.0289 13.7431 54.8725 12.2244 56.5216 12.2244C58.1401 12.2244 58.984 13.7431 58.984 15.7988C58.984 17.8545 58.1401 19.3656 56.5216 19.3656Z" fill="#697586"/>
<path d="M69.0898 26.3303C72.4573 26.3303 74.8504 24.7962 74.8504 21.7817V9.88487H71.6059V11.8638H71.4832C71.0458 10.905 70.087 9.73145 68.1157 9.73145C65.5309 9.73145 63.3448 11.7411 63.3448 15.7527C63.3448 19.6724 65.4694 21.4979 68.1235 21.4979C70.0027 21.4979 71.0536 20.5545 71.4832 19.5803H71.6212V21.7357C71.6212 23.3542 70.5856 23.9832 69.1666 23.9832C67.7245 23.9832 66.9958 23.3542 66.7273 22.6408L63.7054 23.0474C64.0966 24.9036 65.9143 26.3303 69.0898 26.3303ZM69.1591 19.0434C67.5559 19.0434 66.6814 17.7701 66.6814 15.7374C66.6814 13.7354 67.5406 12.3317 69.1591 12.3317C70.7467 12.3317 71.6365 13.6741 71.6365 15.7374C71.6365 17.8161 70.7314 19.0434 69.1591 19.0434Z" fill="#697586"/>
<path d="M82.126 21.8968C85.7005 21.8968 87.925 19.4499 87.925 15.8218C87.925 12.1707 85.7005 9.73145 82.126 9.73145C78.5515 9.73145 76.3273 12.1707 76.3273 15.8218C76.3273 19.4499 78.5515 21.8968 82.126 21.8968ZM82.1413 19.3656C80.4922 19.3656 79.6486 17.8545 79.6486 15.7988C79.6486 13.7431 80.4922 12.2244 82.1413 12.2244C83.7598 12.2244 84.6037 13.7431 84.6037 15.7988C84.6037 17.8545 83.7598 19.3656 82.1413 19.3656Z" fill="#697586"/>
<path d="M89.4016 21.6671H92.6692V9.88527H89.4016V21.6671ZM91.0432 8.36652C92.0173 8.36652 92.815 7.62249 92.815 6.70971C92.815 5.80458 92.0173 5.06055 91.0432 5.06055C90.0766 5.06055 89.2789 5.80458 89.2789 6.70971C89.2789 7.62249 90.0766 8.36652 91.0432 8.36652Z" fill="#697586"/>
<path d="M94.6387 26.0849H97.9063V19.7797H98.0062C98.4586 20.7616 99.448 21.8584 101.35 21.8584C104.035 21.8584 106.129 19.7337 106.129 15.7911C106.129 11.7411 103.943 9.73145 101.358 9.73145C99.3868 9.73145 98.4433 10.905 98.0062 11.8638H97.8604V9.88487H94.6387V26.0849ZM97.8373 15.7758C97.8373 13.6741 98.7271 12.3317 100.315 12.3317C101.933 12.3317 102.792 13.7354 102.792 15.7758C102.792 17.8314 101.918 19.2582 100.315 19.2582C98.7424 19.2582 97.8373 17.8775 97.8373 15.7758Z" fill="#697586"/>
<path d="M117.462 13.2445C117.171 11.0738 115.422 9.73145 112.446 9.73145C109.431 9.73145 107.445 11.1275 107.452 13.3979C107.445 15.1621 108.557 16.305 110.858 16.7652L112.898 17.1718C113.926 17.3789 114.394 17.7547 114.41 18.3454C114.394 19.0434 113.635 19.542 112.492 19.542C111.326 19.542 110.551 19.0434 110.352 18.0846L107.138 18.2533C107.445 20.5084 109.362 21.8968 112.484 21.8968C115.537 21.8968 117.723 20.3397 117.731 18.0156C117.723 16.3127 116.611 15.2925 114.325 14.8246L112.193 14.3951C111.096 14.1573 110.689 13.7814 110.697 13.2138C110.689 12.5082 111.487 12.0479 112.499 12.0479C113.635 12.0479 114.31 12.6692 114.471 13.4286L117.462 13.2445Z" fill="#697586"/>
<path d="M126.696 16.6501C126.704 18.2302 125.622 19.0586 124.449 19.0586C123.213 19.0586 122.416 18.1919 122.408 16.8035V9.88477H119.14V17.3865C119.148 20.1401 120.759 21.82 123.129 21.82C124.901 21.82 126.174 20.9072 126.704 19.5265H126.826V21.6666H129.963V9.88477H126.696V16.6501Z" fill="#697586"/>
<path d="M131.929 21.6667H135.197V14.5945C135.197 13.2906 136.025 12.4238 137.115 12.4238C138.188 12.4238 138.909 13.1601 138.909 14.3184V21.6667H142.077V14.4718C142.077 13.2522 142.775 12.4238 143.964 12.4238C145.007 12.4238 145.79 13.0758 145.79 14.3874V21.6667H149.05V13.7431C149.05 11.1888 147.531 9.73145 145.337 9.73145C143.611 9.73145 142.269 10.6136 141.786 11.9636H141.663C141.287 10.5982 140.083 9.73145 138.465 9.73145C136.877 9.73145 135.672 10.5752 135.181 11.9636H135.043V9.88487H131.929V21.6667Z" fill="#697586"/>
<path d="M15.037 0.560547H30.037L15.037 15.5605V0.560547Z" fill="#697586"/>
<path d="M15.037 15.5605H30.037L15.037 30.5605V15.5605Z" fill="#697586"/>
<path d="M39.637 21.6671H49.693V18.9288H42.9583V5.95801H39.637V21.6671Z" fill="#697586"/>
<path d="M56.5063 21.8968C60.0808 21.8968 62.3053 19.4499 62.3053 15.8218C62.3053 12.1707 60.0808 9.73145 56.5063 9.73145C52.9321 9.73145 50.7076 12.1707 50.7076 15.8218C50.7076 19.4499 52.9321 21.8968 56.5063 21.8968ZM56.5216 19.3656C54.8725 19.3656 54.0289 17.8545 54.0289 15.7988C54.0289 13.7431 54.8725 12.2244 56.5216 12.2244C58.1401 12.2244 58.984 13.7431 58.984 15.7988C58.984 17.8545 58.1401 19.3656 56.5216 19.3656Z" fill="#697586"/>
<path d="M69.0898 26.3303C72.4573 26.3303 74.8504 24.7962 74.8504 21.7817V9.88487H71.6059V11.8638H71.4832C71.0458 10.905 70.087 9.73145 68.1157 9.73145C65.5309 9.73145 63.3448 11.7411 63.3448 15.7527C63.3448 19.6724 65.4694 21.4979 68.1235 21.4979C70.0027 21.4979 71.0536 20.5545 71.4832 19.5803H71.6212V21.7357C71.6212 23.3542 70.5856 23.9832 69.1666 23.9832C67.7245 23.9832 66.9958 23.3542 66.7273 22.6408L63.7054 23.0474C64.0966 24.9036 65.9143 26.3303 69.0898 26.3303ZM69.1591 19.0434C67.5559 19.0434 66.6814 17.7701 66.6814 15.7374C66.6814 13.7354 67.5406 12.3317 69.1591 12.3317C70.7467 12.3317 71.6365 13.6741 71.6365 15.7374C71.6365 17.8161 70.7314 19.0434 69.1591 19.0434Z" fill="#697586"/>
<path d="M82.126 21.8968C85.7005 21.8968 87.925 19.4499 87.925 15.8218C87.925 12.1707 85.7005 9.73145 82.126 9.73145C78.5515 9.73145 76.3273 12.1707 76.3273 15.8218C76.3273 19.4499 78.5515 21.8968 82.126 21.8968ZM82.1413 19.3656C80.4922 19.3656 79.6486 17.8545 79.6486 15.7988C79.6486 13.7431 80.4922 12.2244 82.1413 12.2244C83.7598 12.2244 84.6037 13.7431 84.6037 15.7988C84.6037 17.8545 83.7598 19.3656 82.1413 19.3656Z" fill="#697586"/>
<path d="M89.4016 21.6671H92.6692V9.88527H89.4016V21.6671ZM91.0432 8.36652C92.0173 8.36652 92.815 7.62249 92.815 6.70971C92.815 5.80458 92.0173 5.06055 91.0432 5.06055C90.0766 5.06055 89.2789 5.80458 89.2789 6.70971C89.2789 7.62249 90.0766 8.36652 91.0432 8.36652Z" fill="#697586"/>
<path d="M94.6387 26.0849H97.9063V19.7797H98.0062C98.4586 20.7616 99.448 21.8584 101.35 21.8584C104.035 21.8584 106.129 19.7337 106.129 15.7911C106.129 11.7411 103.943 9.73145 101.358 9.73145C99.3868 9.73145 98.4433 10.905 98.0062 11.8638H97.8604V9.88487H94.6387V26.0849ZM97.8373 15.7758C97.8373 13.6741 98.7271 12.3317 100.315 12.3317C101.933 12.3317 102.792 13.7354 102.792 15.7758C102.792 17.8314 101.918 19.2582 100.315 19.2582C98.7424 19.2582 97.8373 17.8775 97.8373 15.7758Z" fill="#697586"/>
<path d="M117.462 13.2445C117.171 11.0738 115.422 9.73145 112.446 9.73145C109.431 9.73145 107.445 11.1275 107.452 13.3979C107.445 15.1621 108.557 16.305 110.858 16.7652L112.898 17.1718C113.926 17.3789 114.394 17.7547 114.41 18.3454C114.394 19.0434 113.635 19.542 112.492 19.542C111.326 19.542 110.551 19.0434 110.352 18.0846L107.138 18.2533C107.445 20.5084 109.362 21.8968 112.484 21.8968C115.537 21.8968 117.723 20.3397 117.731 18.0156C117.723 16.3127 116.611 15.2925 114.325 14.8246L112.193 14.3951C111.096 14.1573 110.689 13.7814 110.697 13.2138C110.689 12.5082 111.487 12.0479 112.499 12.0479C113.635 12.0479 114.31 12.6692 114.471 13.4286L117.462 13.2445Z" fill="#697586"/>
<path d="M126.696 16.6501C126.704 18.2302 125.622 19.0586 124.449 19.0586C123.213 19.0586 122.416 18.1919 122.408 16.8035V9.88477H119.14V17.3865C119.148 20.1401 120.759 21.82 123.129 21.82C124.901 21.82 126.174 20.9072 126.704 19.5265H126.826V21.6666H129.963V9.88477H126.696V16.6501Z" fill="#697586"/>
<path d="M131.929 21.6667H135.197V14.5945C135.197 13.2906 136.025 12.4238 137.115 12.4238C138.188 12.4238 138.909 13.1601 138.909 14.3184V21.6667H142.077V14.4718C142.077 13.2522 142.775 12.4238 143.964 12.4238C145.007 12.4238 145.79 13.0758 145.79 14.3874V21.6667H149.05V13.7431C149.05 11.1888 147.531 9.73145 145.337 9.73145C143.611 9.73145 142.269 10.6136 141.786 11.9636H141.663C141.287 10.5982 140.083 9.73145 138.465 9.73145C136.877 9.73145 135.672 10.5752 135.181 11.9636H135.043V9.88487H131.929V21.6667Z" fill="#697586"/>
</svg>
