<svg width="150" height="31" viewBox="0 0 150 31" fill="none" xmlns="http://www.w3.org/2000/svg">
<path d="M7.52417 15.5605C11.6663 15.5605 15.0242 12.2027 15.0242 8.06055C15.0242 3.91841 11.6663 0.560547 7.52417 0.560547C3.38203 0.560547 0.0241699 3.91841 0.0241699 8.06055C0.0241699 12.2027 3.38203 15.5605 7.52417 15.5605Z" fill="#697586"/>
<path d="M7.52417 30.5605C11.6663 30.5605 15.0242 27.2027 15.0242 23.0605C15.0242 18.9184 11.6663 15.5605 7.52417 15.5605C3.38203 15.5605 0.0241699 18.9184 0.0241699 23.0605C0.0241699 27.2027 3.38203 30.5605 7.52417 30.5605Z" fill="#697586"/>
<path d="M39.6241 21.6671H49.6801V18.9288H42.9454V5.95801H39.6241V21.6671Z" fill="#697586"/>
<path d="M56.4935 21.8968C60.068 21.8968 62.2925 19.4499 62.2925 15.8218C62.2925 12.1707 60.068 9.73145 56.4935 9.73145C52.9193 9.73145 50.6948 12.1707 50.6948 15.8218C50.6948 19.4499 52.9193 21.8968 56.4935 21.8968ZM56.5088 19.3656C54.8597 19.3656 54.0161 17.8545 54.0161 15.7988C54.0161 13.7431 54.8597 12.2244 56.5088 12.2244C58.1273 12.2244 58.9712 13.7431 58.9712 15.7988C58.9712 17.8545 58.1273 19.3656 56.5088 19.3656Z" fill="#697586"/>
<path d="M69.077 26.3303C72.4445 26.3303 74.8376 24.7962 74.8376 21.7817V9.88487H71.5931V11.8638H71.4704C71.033 10.905 70.0742 9.73145 68.1029 9.73145C65.5181 9.73145 63.332 11.7411 63.332 15.7527C63.332 19.6724 65.4566 21.4979 68.1107 21.4979C69.9899 21.4979 71.0408 20.5545 71.4704 19.5803H71.6084V21.7357C71.6084 23.3542 70.5728 23.9832 69.1538 23.9832C67.7117 23.9832 66.983 23.3542 66.7145 22.6408L63.6926 23.0474C64.0838 24.9036 65.9015 26.3303 69.077 26.3303ZM69.1463 19.0434C67.5431 19.0434 66.6686 17.7701 66.6686 15.7374C66.6686 13.7354 67.5278 12.3317 69.1463 12.3317C70.7339 12.3317 71.6237 13.6741 71.6237 15.7374C71.6237 17.8161 70.7186 19.0434 69.1463 19.0434Z" fill="#697586"/>
<path d="M82.1132 21.8968C85.6877 21.8968 87.9121 19.4499 87.9121 15.8218C87.9121 12.1707 85.6877 9.73145 82.1132 9.73145C78.5387 9.73145 76.3145 12.1707 76.3145 15.8218C76.3145 19.4499 78.5387 21.8968 82.1132 21.8968ZM82.1285 19.3656C80.4794 19.3656 79.6358 17.8545 79.6358 15.7988C79.6358 13.7431 80.4794 12.2244 82.1285 12.2244C83.747 12.2244 84.5909 13.7431 84.5909 15.7988C84.5909 17.8545 83.747 19.3656 82.1285 19.3656Z" fill="#697586"/>
<path d="M89.3888 21.6671H92.6564V9.88527H89.3888V21.6671ZM91.0304 8.36652C92.0045 8.36652 92.8022 7.62249 92.8022 6.70971C92.8022 5.80458 92.0045 5.06055 91.0304 5.06055C90.0638 5.06055 89.2661 5.80458 89.2661 6.70971C89.2661 7.62249 90.0638 8.36652 91.0304 8.36652Z" fill="#697586"/>
<path d="M94.6259 26.0849H97.8935V19.7797H97.9934C98.4458 20.7616 99.4352 21.8584 101.337 21.8584C104.022 21.8584 106.116 19.7337 106.116 15.7911C106.116 11.7411 103.93 9.73145 101.345 9.73145C99.374 9.73145 98.4305 10.905 97.9934 11.8638H97.8476V9.88487H94.6259V26.0849ZM97.8245 15.7758C97.8245 13.6741 98.7143 12.3317 100.302 12.3317C101.921 12.3317 102.78 13.7354 102.78 15.7758C102.78 17.8314 101.905 19.2582 100.302 19.2582C98.7296 19.2582 97.8245 17.8775 97.8245 15.7758Z" fill="#697586"/>
<path d="M117.45 13.2445C117.158 11.0738 115.409 9.73145 112.433 9.73145C109.419 9.73145 107.432 11.1275 107.439 13.3979C107.432 15.1621 108.544 16.305 110.845 16.7652L112.886 17.1718C113.913 17.3789 114.381 17.7547 114.397 18.3454C114.381 19.0434 113.622 19.542 112.479 19.542C111.313 19.542 110.538 19.0434 110.339 18.0846L107.125 18.2533C107.432 20.5084 109.35 21.8968 112.471 21.8968C115.524 21.8968 117.71 20.3397 117.718 18.0156C117.71 16.3127 116.598 15.2925 114.312 14.8246L112.18 14.3951C111.083 14.1573 110.676 13.7814 110.684 13.2138C110.676 12.5082 111.474 12.0479 112.487 12.0479C113.622 12.0479 114.297 12.6692 114.458 13.4286L117.45 13.2445Z" fill="#697586"/>
<path d="M126.683 16.6501C126.691 18.2302 125.609 19.0586 124.436 19.0586C123.201 19.0586 122.403 18.1919 122.395 16.8035V9.88477H119.128V17.3865C119.135 20.1401 120.746 21.82 123.116 21.82C124.888 21.82 126.161 20.9072 126.691 19.5265H126.814V21.6666H129.951V9.88477H126.683V16.6501Z" fill="#697586"/>
<path d="M131.916 21.6667H135.184V14.5945C135.184 13.2906 136.012 12.4238 137.102 12.4238C138.175 12.4238 138.897 13.1601 138.897 14.3184V21.6667H142.064V14.4718C142.064 13.2522 142.762 12.4238 143.951 12.4238C144.994 12.4238 145.777 13.0758 145.777 14.3874V21.6667H149.037V13.7431C149.037 11.1888 147.518 9.73145 145.324 9.73145C143.599 9.73145 142.256 10.6136 141.773 11.9636H141.65C141.274 10.5982 140.07 9.73145 138.452 9.73145C136.864 9.73145 135.66 10.5752 135.169 11.9636H135.031V9.88487H131.916V21.6667Z" fill="#697586"/>
<path d="M30.0242 0.560547H15.0242V15.5605H30.0242V0.560547Z" fill="#697586"/>
<path d="M15.0242 15.5605H30.0242L15.0242 30.5605V15.5605Z" fill="#697586"/>
<path d="M39.6241 21.6671H49.6801V18.9288H42.9454V5.95801H39.6241V21.6671Z" fill="#697586"/>
<path d="M56.4935 21.8968C60.068 21.8968 62.2925 19.4499 62.2925 15.8218C62.2925 12.1707 60.068 9.73145 56.4935 9.73145C52.9193 9.73145 50.6948 12.1707 50.6948 15.8218C50.6948 19.4499 52.9193 21.8968 56.4935 21.8968ZM56.5088 19.3656C54.8597 19.3656 54.0161 17.8545 54.0161 15.7988C54.0161 13.7431 54.8597 12.2244 56.5088 12.2244C58.1273 12.2244 58.9712 13.7431 58.9712 15.7988C58.9712 17.8545 58.1273 19.3656 56.5088 19.3656Z" fill="#697586"/>
<path d="M69.077 26.3303C72.4445 26.3303 74.8376 24.7962 74.8376 21.7817V9.88487H71.5931V11.8638H71.4704C71.033 10.905 70.0742 9.73145 68.1029 9.73145C65.5181 9.73145 63.332 11.7411 63.332 15.7527C63.332 19.6724 65.4566 21.4979 68.1107 21.4979C69.9899 21.4979 71.0408 20.5545 71.4704 19.5803H71.6084V21.7357C71.6084 23.3542 70.5728 23.9832 69.1538 23.9832C67.7117 23.9832 66.983 23.3542 66.7145 22.6408L63.6926 23.0474C64.0838 24.9036 65.9015 26.3303 69.077 26.3303ZM69.1463 19.0434C67.5431 19.0434 66.6686 17.7701 66.6686 15.7374C66.6686 13.7354 67.5278 12.3317 69.1463 12.3317C70.7339 12.3317 71.6237 13.6741 71.6237 15.7374C71.6237 17.8161 70.7186 19.0434 69.1463 19.0434Z" fill="#697586"/>
<path d="M82.1132 21.8968C85.6877 21.8968 87.9121 19.4499 87.9121 15.8218C87.9121 12.1707 85.6877 9.73145 82.1132 9.73145C78.5387 9.73145 76.3145 12.1707 76.3145 15.8218C76.3145 19.4499 78.5387 21.8968 82.1132 21.8968ZM82.1285 19.3656C80.4794 19.3656 79.6358 17.8545 79.6358 15.7988C79.6358 13.7431 80.4794 12.2244 82.1285 12.2244C83.747 12.2244 84.5909 13.7431 84.5909 15.7988C84.5909 17.8545 83.747 19.3656 82.1285 19.3656Z" fill="#697586"/>
<path d="M89.3888 21.6671H92.6564V9.88527H89.3888V21.6671ZM91.0304 8.36652C92.0045 8.36652 92.8022 7.62249 92.8022 6.70971C92.8022 5.80458 92.0045 5.06055 91.0304 5.06055C90.0638 5.06055 89.2661 5.80458 89.2661 6.70971C89.2661 7.62249 90.0638 8.36652 91.0304 8.36652Z" fill="#697586"/>
<path d="M94.6259 26.0849H97.8935V19.7797H97.9934C98.4458 20.7616 99.4352 21.8584 101.337 21.8584C104.022 21.8584 106.116 19.7337 106.116 15.7911C106.116 11.7411 103.93 9.73145 101.345 9.73145C99.374 9.73145 98.4305 10.905 97.9934 11.8638H97.8476V9.88487H94.6259V26.0849ZM97.8245 15.7758C97.8245 13.6741 98.7143 12.3317 100.302 12.3317C101.921 12.3317 102.78 13.7354 102.78 15.7758C102.78 17.8314 101.905 19.2582 100.302 19.2582C98.7296 19.2582 97.8245 17.8775 97.8245 15.7758Z" fill="#697586"/>
<path d="M117.45 13.2445C117.158 11.0738 115.409 9.73145 112.433 9.73145C109.419 9.73145 107.432 11.1275 107.439 13.3979C107.432 15.1621 108.544 16.305 110.845 16.7652L112.886 17.1718C113.913 17.3789 114.381 17.7547 114.397 18.3454C114.381 19.0434 113.622 19.542 112.479 19.542C111.313 19.542 110.538 19.0434 110.339 18.0846L107.125 18.2533C107.432 20.5084 109.35 21.8968 112.471 21.8968C115.524 21.8968 117.71 20.3397 117.718 18.0156C117.71 16.3127 116.598 15.2925 114.312 14.8246L112.18 14.3951C111.083 14.1573 110.676 13.7814 110.684 13.2138C110.676 12.5082 111.474 12.0479 112.487 12.0479C113.622 12.0479 114.297 12.6692 114.458 13.4286L117.45 13.2445Z" fill="#697586"/>
<path d="M126.683 16.6501C126.691 18.2302 125.609 19.0586 124.436 19.0586C123.201 19.0586 122.403 18.1919 122.395 16.8035V9.88477H119.128V17.3865C119.135 20.1401 120.746 21.82 123.116 21.82C124.888 21.82 126.161 20.9072 126.691 19.5265H126.814V21.6666H129.951V9.88477H126.683V16.6501Z" fill="#697586"/>
<path d="M131.916 21.6667H135.184V14.5945C135.184 13.2906 136.012 12.4238 137.102 12.4238C138.175 12.4238 138.897 13.1601 138.897 14.3184V21.6667H142.064V14.4718C142.064 13.2522 142.762 12.4238 143.951 12.4238C144.994 12.4238 145.777 13.0758 145.777 14.3874V21.6667H149.037V13.7431C149.037 11.1888 147.518 9.73145 145.324 9.73145C143.599 9.73145 142.256 10.6136 141.773 11.9636H141.65C141.274 10.5982 140.07 9.73145 138.452 9.73145C136.864 9.73145 135.66 10.5752 135.169 11.9636H135.031V9.88487H131.916V21.6667Z" fill="#697586"/>
</svg>
