<svg width="130" height="31" viewBox="0 0 130 31" fill="none" xmlns="http://www.w3.org/2000/svg">
<path d="M37.4003 22.3109H45.9149V19.8864H39.9967V8.56543H37.4003V22.3109Z" fill="#697586"/>
<path d="M51.0315 22.5967C52.0624 22.5967 52.9692 22.3675 53.7519 21.9094C54.541 21.4448 55.1551 20.8053 55.5942 19.9908C56.0397 19.1698 56.2624 18.2248 56.2624 17.1558C56.2624 16.093 56.0428 15.1544 55.6038 14.3398C55.1646 13.519 54.5505 12.8762 53.7615 12.4117C52.9788 11.9471 52.0688 11.7148 51.0315 11.7148C50.0133 11.7148 49.1128 11.944 48.3301 12.4021C47.5474 12.8603 46.9333 13.4998 46.4878 14.3208C46.0424 15.1353 45.8196 16.0803 45.8196 17.1558C45.8196 18.2185 46.036 19.1603 46.4688 19.9812C46.9078 20.7958 47.5188 21.4353 48.3015 21.8998C49.0842 22.3644 49.9942 22.5967 51.0315 22.5967ZM51.0315 20.1721C50.2233 20.1721 49.6092 19.9017 49.1892 19.3608C48.7755 18.8135 48.5688 18.0785 48.5688 17.1558C48.5688 16.2585 48.766 15.533 49.1606 14.9794C49.5615 14.4194 50.1851 14.1394 51.0315 14.1394C51.8524 14.1394 52.4697 14.413 52.8833 14.9603C53.3033 15.5076 53.5133 16.2394 53.5133 17.1558C53.5133 18.0403 53.3065 18.7657 52.8928 19.3321C52.4856 19.8921 51.8651 20.1721 51.0315 20.1721Z" fill="#697586"/>
<path d="M61.3969 22.5967C61.8806 22.5967 62.326 22.5394 62.7334 22.4248C63.147 22.3103 63.5224 22.148 63.8597 21.938V22.9785C63.8725 23.3603 63.7738 23.6785 63.5638 23.933C63.3601 24.1939 63.0865 24.388 62.7429 24.5153C62.3992 24.649 62.0333 24.7158 61.6452 24.7158C61.2824 24.7158 60.9451 24.6362 60.6334 24.4771C60.3279 24.3181 60.0924 24.0858 59.9269 23.7803L57.5215 24.9448C57.916 25.613 58.4792 26.1508 59.2111 26.558C59.9429 26.9716 60.7479 27.1785 61.6261 27.1785C62.3833 27.1785 63.0865 27.0766 63.7356 26.873C64.3847 26.6758 64.932 26.3735 65.3774 25.9662C65.8292 25.5589 66.1379 25.0403 66.3034 24.4103C66.3606 24.1876 66.3988 23.9617 66.4179 23.7325C66.4433 23.5099 66.4561 23.2712 66.4561 23.0167V12.0012H64.1842V12.574C63.8342 12.3003 63.4365 12.0903 62.9911 11.944C62.5519 11.7912 62.0652 11.7148 61.5306 11.7148C60.5443 11.7148 59.6851 11.9503 58.9534 12.4212C58.2215 12.8921 57.652 13.538 57.2447 14.359C56.8438 15.1735 56.6434 16.1058 56.6434 17.1558C56.6434 18.1867 56.8406 19.1125 57.2352 19.9335C57.6361 20.7544 58.1929 21.4035 58.9056 21.8808C59.6183 22.358 60.4488 22.5967 61.3969 22.5967ZM61.8169 20.2867C61.257 20.2867 60.7988 20.1466 60.4424 19.8667C60.0861 19.5867 59.8219 19.2112 59.6502 18.7403C59.4784 18.263 59.3924 17.7349 59.3924 17.1558C59.3924 16.583 59.4815 16.0612 59.6597 15.5903C59.8379 15.113 60.1115 14.7344 60.4806 14.4544C60.856 14.168 61.3333 14.0248 61.9124 14.0248C62.727 14.0248 63.3092 14.3144 63.6592 14.8935C64.0093 15.4662 64.1842 16.2203 64.1842 17.1558C64.1842 18.0912 64.006 18.8485 63.6497 19.4275C63.2997 20.0003 62.6888 20.2867 61.8169 20.2867Z" fill="#697586"/>
<path d="M72.6228 22.5967C73.6538 22.5967 74.5606 22.3675 75.3433 21.9094C76.1322 21.4448 76.7465 20.8053 77.1852 19.9908C77.6307 19.1698 77.8535 18.2248 77.8535 17.1558C77.8535 16.093 77.6345 15.1544 77.195 14.3398C76.7562 13.519 76.142 12.8762 75.3528 12.4117C74.5701 11.9471 73.6601 11.7148 72.6228 11.7148C71.6046 11.7148 70.7042 11.944 69.9215 12.4021C69.1388 12.8603 68.5247 13.4998 68.0792 14.3208C67.6338 15.1353 67.411 16.0803 67.411 17.1558C67.411 18.2185 67.6274 19.1603 68.0601 19.9812C68.4992 20.7958 69.1101 21.4353 69.8928 21.8998C70.6756 22.3644 71.5856 22.5967 72.6228 22.5967ZM72.6228 20.1721C71.8146 20.1721 71.2005 19.9017 70.7805 19.3608C70.3669 18.8135 70.1601 18.0785 70.1601 17.1558C70.1601 16.2585 70.3574 15.533 70.752 14.9794C71.1528 14.4194 71.7765 14.1394 72.6228 14.1394C73.4438 14.1394 74.061 14.413 74.4747 14.9603C74.8947 15.5076 75.1047 16.2394 75.1047 17.1558C75.1047 18.0403 74.8978 18.7657 74.4842 19.3321C74.0769 19.8921 73.4565 20.1721 72.6228 20.1721Z" fill="#697586"/>
<path d="M78.998 10.5692H81.5945V8.27832H78.998V10.5692ZM78.998 22.3101H81.5945V12.001H78.998V22.3101Z" fill="#697586"/>
<path d="M83.2917 26.8921H85.907V21.938C86.2445 22.148 86.6165 22.3103 87.0237 22.4248C87.4377 22.5394 87.8862 22.5967 88.37 22.5967C89.318 22.5967 90.149 22.358 90.8615 21.8808C91.574 21.4035 92.1275 20.7544 92.522 19.9335C92.9232 19.1125 93.1235 18.1867 93.1235 17.1558C93.1235 16.1058 92.9202 15.1735 92.513 14.359C92.1117 13.538 91.5455 12.8921 90.8135 12.4212C90.0815 11.9503 89.2227 11.7148 88.2365 11.7148C87.7017 11.7148 87.212 11.7912 86.7665 11.944C86.327 12.0903 85.9325 12.3003 85.583 12.574V12.0012H83.2917V26.8921ZM87.95 20.2867C87.0845 20.2867 86.474 20.0003 86.117 19.4275C85.7607 18.8485 85.583 18.0912 85.583 17.1558C85.583 16.2203 85.7577 15.4662 86.108 14.8935C86.4642 14.3144 87.0462 14.0248 87.8547 14.0248C88.4337 14.0248 88.9077 14.168 89.2767 14.4544C89.6525 14.7344 89.9292 15.113 90.107 15.5903C90.2855 16.0612 90.3747 16.583 90.3747 17.1558C90.3747 17.7349 90.2885 18.263 90.1167 18.7403C89.945 19.2112 89.681 19.5867 89.3247 19.8667C88.9685 20.1466 88.5102 20.2867 87.95 20.2867Z" fill="#697586"/>
<path d="M97.8275 22.5967C99.176 22.5967 100.233 22.2944 100.996 21.6898C101.76 21.0853 102.142 20.2549 102.142 19.1985C102.142 18.3967 101.893 17.7635 101.397 17.299C100.907 16.8344 100.074 16.4494 98.8963 16.144C98.0945 15.9403 97.496 15.7748 97.1015 15.6475C96.7138 15.5203 96.4558 15.3962 96.3283 15.2753C96.2075 15.1544 96.1475 15.0049 96.1475 14.8267C96.1475 14.5276 96.29 14.2985 96.5765 14.1394C96.8698 13.9803 97.2545 13.9167 97.7315 13.9485C98.7432 14.0248 99.2975 14.4576 99.3927 15.2467L102.046 14.7694C101.913 13.834 101.454 13.0926 100.671 12.5453C99.8892 11.9917 98.8902 11.7148 97.6745 11.7148C96.4272 11.7148 95.4313 12.0076 94.6865 12.593C93.9425 13.1785 93.5698 13.9675 93.5698 14.9603C93.5698 15.7494 93.8278 16.373 94.343 16.8312C94.8583 17.2831 95.7463 17.6712 97.0063 17.9958C97.751 18.193 98.2978 18.3521 98.648 18.473C99.0042 18.5939 99.2337 18.718 99.335 18.8453C99.437 18.9662 99.488 19.1285 99.488 19.3321C99.488 19.6567 99.3605 19.9112 99.1063 20.0958C98.852 20.2739 98.489 20.363 98.018 20.363C97.445 20.363 96.971 20.2262 96.596 19.9525C96.227 19.6789 95.9878 19.3003 95.8798 18.8167L93.2263 19.2175C93.398 20.293 93.8818 21.1267 94.6775 21.7185C95.4793 22.3039 96.5293 22.5967 97.8275 22.5967Z" fill="#697586"/>
<path d="M106.931 22.6166C107.676 22.6166 108.325 22.4924 108.879 22.2443C109.432 21.9961 109.897 21.6652 110.272 21.2516V22.3111H112.563V12.002H109.948V17.2329C109.948 17.8693 109.874 18.3847 109.728 18.7793C109.588 19.1675 109.407 19.4633 109.184 19.667C108.961 19.8643 108.723 19.9979 108.468 20.0679C108.214 20.1379 107.975 20.1729 107.752 20.1729C107.199 20.1729 106.769 20.0488 106.464 19.8006C106.165 19.5524 105.948 19.2438 105.814 18.8747C105.681 18.5056 105.601 18.1397 105.576 17.777C105.55 17.4079 105.538 17.1056 105.538 16.8701V12.002H102.903V17.7866C102.903 17.9583 102.916 18.232 102.941 18.6074C102.967 18.9829 103.04 19.3997 103.161 19.8579C103.282 20.3097 103.482 20.7456 103.762 21.1656C104.049 21.5856 104.446 21.9324 104.956 22.2061C105.464 22.4797 106.123 22.6166 106.931 22.6166Z" fill="#697586"/>
<path d="M114.066 22.3102H116.682V16.0675C116.682 15.4757 116.844 14.9953 117.168 14.6261C117.499 14.2507 117.935 14.0629 118.476 14.0629C119.043 14.0629 119.485 14.2539 119.803 14.6357C120.127 15.0112 120.29 15.5393 120.29 16.2202V22.3102H122.886V16.0675C122.886 15.4757 123.048 14.9953 123.373 14.6261C123.704 14.2507 124.14 14.0629 124.68 14.0629C125.247 14.0629 125.689 14.2539 126.007 14.6357C126.332 15.0112 126.495 15.5393 126.495 16.2202V22.3102H129.09V15.5329C129.09 14.4066 128.788 13.4966 128.184 12.8029C127.586 12.103 126.698 11.7529 125.52 11.7529C124.859 11.7529 124.251 11.8961 123.697 12.1825C123.144 12.4689 122.702 12.8602 122.37 13.3566C122.103 12.873 121.722 12.4848 121.225 12.1921C120.729 11.8993 120.111 11.7529 119.373 11.7529C118.749 11.7529 118.177 11.8771 117.655 12.1252C117.133 12.367 116.7 12.7012 116.357 13.1275V12.0011H114.066V22.3102Z" fill="#697586"/>
<path d="M15.623 0.560547C7.33877 0.560547 0.623047 7.27627 0.623047 15.5605C8.90732 15.5605 15.623 8.84482 15.623 0.560547Z" fill="#697586"/>
<path d="M15.623 30.5605C23.9073 30.5605 30.623 23.8448 30.623 15.5605C22.3388 15.5605 15.623 22.2763 15.623 30.5605Z" fill="#697586"/>
<path d="M15.623 0.560547C23.9073 0.560547 30.623 7.27627 30.623 15.5605C22.3388 15.5605 15.623 8.84482 15.623 0.560547Z" fill="#697586"/>
<path d="M15.623 30.5605C7.33877 30.5605 0.623046 23.8448 0.623047 15.5605C8.90732 15.5605 15.623 22.2763 15.623 30.5605Z" fill="#697586"/>
</svg>
