<svg width="1358" height="281" viewBox="0 0 1358 281" fill="none" xmlns="http://www.w3.org/2000/svg">
<path d="M120.215 136.387H169.303C174.12 136.387 177.102 131.34 177.102 126.752V109.778H63.0982V34.0817C63.0982 29.2647 58.2812 26.2827 53.4642 26.2827H33.7372V107.255C33.7372 110.696 35.1135 113.907 37.8661 116.43L53.6936 132.487C56.4461 135.01 59.6575 136.387 63.0982 136.387H90.8536V175.84H8.27573V192.815C8.27573 197.632 11.4871 202.449 15.8454 202.449H194.993C199.581 202.449 202.792 197.632 202.792 192.815V175.84H120.215V136.387ZM348.662 53.1205V82.0228H240.393V98.9971C240.393 103.814 243.834 108.631 248.422 108.631H348.662V142.809H368.389C372.977 142.809 378.023 139.598 378.023 135.01V55.8731C378.023 52.4324 376.647 49.221 373.894 46.239L358.296 30.8704C355.544 27.8884 352.332 26.5121 348.662 26.5121H234.659V43.4864C234.659 48.3035 237.87 53.1205 242.458 53.1205H348.662ZM312.649 134.781C312.649 130.193 307.832 126.982 303.015 126.982H283.288V176.07H208.968V192.815C208.968 197.402 211.72 202.449 216.537 202.449H395.686C400.273 202.449 403.485 197.632 403.485 192.815V175.84H312.649V134.781ZM409.66 192.815C409.66 197.632 412.871 202.449 417.23 202.449H596.378C600.965 202.449 604.177 197.632 604.177 192.815V175.84H409.66V192.815ZM455.078 138.451C457.83 140.974 461.042 142.35 464.482 142.35H570.687C575.274 142.35 578.486 137.992 578.486 132.716V115.742H464.482V52.8911H570.687C575.274 52.8911 578.486 48.0741 578.486 43.4864V26.2827H435.121V113.219C435.121 116.66 436.498 119.871 439.25 122.394L455.078 138.451ZM642.007 90.9687C647.512 90.7393 652.329 86.1516 652.329 80.4171V61.6077H622.968V90.9687H642.007ZM642.007 177.446C647.512 177.446 652.329 172.858 652.329 167.124V148.314H622.968V177.446H642.007ZM810.505 40.5044V51.0561H702.465V68.0304C702.465 72.8474 705.218 77.6645 710.264 77.6645H810.505V93.4919H830.232C835.508 93.4919 839.866 90.2805 839.866 85.6929V43.0277C839.866 39.5869 838.49 36.3755 835.966 33.623L819.91 17.7955C817.386 15.5017 813.946 13.896 810.734 13.896H696.502V30.8704C696.502 35.6874 699.942 40.5044 704.53 40.5044H810.505ZM671.04 99.9146V116.889C671.04 122.165 674.251 126.523 678.61 126.523H857.758C862.345 126.523 865.557 122.165 865.557 116.889V99.9146H671.04ZM695.125 150.149C695.125 154.967 698.337 159.784 702.924 159.784H812.111V168.5H695.125V194.191C695.125 198.091 696.502 201.761 699.025 205.201L710.723 220.799C713.705 223.552 716.917 224.928 720.357 224.928H833.673C838.26 224.928 841.472 220.57 841.472 215.294V201.072H724.486V192.356H833.673C838.26 192.356 841.472 187.539 841.472 182.722V135.928H695.125V150.149ZM1032.53 13.896V87.2986H1016.01V21.4657C1016.01 17.1074 1011.43 13.896 1006.15 13.896H986.653V224.928H993.993C996.058 224.699 998.352 224.011 999.957 222.864L1013.03 210.018C1015.1 207.954 1016.01 205.66 1016.01 203.137V113.907H1032.53V224.928H1039.87C1042.16 224.699 1044.46 223.781 1045.83 222.864L1059.14 209.789C1060.74 207.954 1061.89 205.431 1061.89 203.137V21.4657C1061.89 16.6486 1056.84 13.896 1052.26 13.896H1032.53ZM881.137 43.257C881.137 47.8447 884.348 52.8911 888.936 52.8911H939.4V89.363H881.137V149.92C881.137 153.361 882.743 156.572 885.266 159.095L901.093 175.152C903.616 177.675 906.828 179.052 910.498 179.052H960.962C965.55 179.052 968.761 174.235 968.761 169.418V152.443H910.498V115.971H960.962C965.55 115.971 968.761 111.613 968.761 106.337V26.2827H881.137V43.257ZM1250.65 127.899C1251.8 126.294 1252.72 124.229 1252.72 122.394C1252.72 120.1 1251.8 118.036 1249.51 116.43C1231.16 102.667 1208.22 85.0047 1194.46 67.3423C1185.74 56.3319 1184.36 54.2674 1184.36 39.8163V27.8884C1184.36 23.3007 1180 20.0894 1174.73 20.0894H1155V42.7983C1155 48.9916 1154.31 53.3499 1152.94 55.4143C1150.64 59.5432 1147.2 64.819 1142.84 70.0948C1138.26 75.6 1127.93 85.2341 1113.25 97.8502L1088.94 116.66C1086.88 118.495 1085.96 120.559 1085.96 122.853C1085.96 124.459 1086.42 126.294 1087.79 127.899L1095.82 137.533C1097.66 139.368 1099.95 140.515 1102.24 140.515C1103.85 140.515 1105.68 140.057 1107.29 138.91L1116.47 132.028C1135.28 118.036 1153.86 101.062 1169.68 83.6284C1183.9 100.373 1200.65 114.825 1218.08 128.358L1231.16 138.68C1232.99 139.827 1234.83 140.515 1236.43 140.515C1238.96 140.515 1241.02 139.368 1242.63 137.533L1250.65 127.899ZM1072.42 192.815C1072.42 197.632 1075.64 202.449 1079.99 202.449H1259.14C1263.73 202.449 1266.94 197.632 1266.94 192.815V175.84H1072.42V192.815Z" fill="white"/>
<circle cx="1326.37" cy="173.008" r="30.8166" fill="#ED8E00"/>
</svg>
