<svg width="131" height="31" viewBox="0 0 131 31" fill="none" xmlns="http://www.w3.org/2000/svg">
<path d="M37.1087 9.65761H40.4104V23.029H37.1087V9.65761ZM41.727 17.9993C41.727 14.6873 43.7841 12.7022 46.8698 12.7022C49.9556 12.7022 52.0127 14.6873 52.0127 17.9993C52.0127 21.3113 50.0276 23.317 46.8698 23.317C43.7121 23.317 41.727 21.3833 41.727 17.9993ZM48.7418 17.9993C48.7418 16.1787 48.0321 15.109 46.9007 15.109C45.7693 15.109 45.0698 16.1376 45.0698 17.9993C45.0698 19.861 45.7693 20.8793 46.9007 20.8793C48.0321 20.8793 48.7624 19.861 48.7624 18.0096L48.7418 17.9993ZM53.3293 23.7182H56.5178C56.663 24.0614 56.9165 24.3479 57.2397 24.5335C57.5629 24.7193 57.9379 24.7942 58.3076 24.7467C59.5727 24.7467 60.231 24.0679 60.231 23.0599V21.2085H60.2413C59.9688 21.785 59.5282 22.2654 58.9775 22.5867C58.4267 22.9081 57.7915 23.0551 57.1556 23.0085C54.7384 23.0085 53.1338 21.1673 53.1338 17.9993C53.1338 14.8313 54.6664 12.8565 57.2481 12.8565C57.9003 12.8216 58.5474 12.9898 59.1 13.3379C59.6526 13.6861 60.0837 14.1971 60.3338 14.8005H60.2413V12.9387H63.5121V22.957C63.5121 25.3742 61.3727 26.8862 58.2253 26.8862C55.3658 26.8759 53.535 25.5696 53.3498 23.7285L53.3293 23.7182ZM60.2413 17.9993C60.2413 16.3845 59.5007 15.3662 58.3281 15.3662C57.1556 15.3662 56.4356 16.3947 56.4356 17.9993C56.4356 19.6039 57.1453 20.5502 58.3281 20.5502C59.511 20.5502 60.2413 19.6759 60.2413 17.9993ZM64.8184 17.9993C64.8184 14.6873 66.8755 12.7022 69.9613 12.7022C73.047 12.7022 75.1041 14.6873 75.1041 17.9993C75.1041 21.3113 73.1087 23.317 69.9613 23.317C66.8138 23.317 64.839 21.3833 64.839 17.9993H64.8184ZM71.8333 17.9993C71.8333 16.1787 71.1133 15.109 69.9921 15.109C68.871 15.109 68.1613 16.1376 68.1613 17.9993C68.1613 19.861 68.8607 20.8793 69.9921 20.8793C71.1236 20.8793 71.8538 19.861 71.8538 18.0096L71.8333 17.9993ZM76.4413 10.501C76.4269 10.1647 76.5135 9.83174 76.6899 9.54508C76.8663 9.25831 77.1244 9.031 77.4312 8.89224C77.7379 8.75339 78.0791 8.70957 78.4109 8.76635C78.7427 8.82302 79.0499 8.97772 79.2931 9.21049C79.5362 9.44335 79.7042 9.74349 79.7754 10.0725C79.8464 10.4016 79.8175 10.7444 79.6923 11.0568C79.567 11.3693 79.3511 11.6371 79.0723 11.8258C78.7936 12.0146 78.4648 12.1156 78.1281 12.1159C77.913 12.1213 77.6989 12.084 77.4983 12.0061C77.2978 11.9282 77.1146 11.8111 76.9596 11.6619C76.8046 11.5126 76.6807 11.3341 76.5953 11.1365C76.5099 10.939 76.4645 10.7265 76.4618 10.5113L76.4413 10.501ZM76.4413 12.9285H79.7841V23.0702H76.4927L76.4413 12.9285ZM91.8081 17.9993C91.8081 21.301 90.327 23.2142 87.807 23.2142C87.1619 23.254 86.52 23.0948 85.9682 22.7582C85.4164 22.4216 84.9812 21.9237 84.7213 21.3319H84.6595V26.3307H81.3578V12.9593H84.639V14.7696H84.7007C84.9517 14.1661 85.3826 13.6546 85.9348 13.3049C86.487 12.9552 87.1336 12.7843 87.7864 12.8153C90.3784 12.7947 91.8698 14.6976 91.8698 18.0096L91.8081 17.9993ZM88.4447 17.9993C88.4447 16.3947 87.6938 15.3559 86.5315 15.3559C85.3693 15.3559 84.639 16.3845 84.6287 17.9993C84.6184 19.6142 85.3693 20.6325 86.5315 20.6325C87.6938 20.6325 88.5064 19.6759 88.5064 18.0096L88.4447 17.9993ZM97.4447 12.6919C100.212 12.6919 101.929 13.9982 101.95 16.0965H98.9361C98.9361 15.3662 98.3293 14.9136 97.4241 14.9136C96.519 14.9136 96.087 15.2633 96.087 15.7879C96.087 16.3125 96.4675 16.477 97.2287 16.6313L99.3475 17.0633C101.405 17.4953 102.228 18.3182 102.228 19.8507C102.228 21.9079 100.325 23.3067 97.4961 23.3067C94.6675 23.3067 92.8264 21.949 92.6927 19.8816H95.8915C95.9841 20.6325 96.5807 21.0747 97.5475 21.0747C98.5144 21.0747 98.967 20.7662 98.967 20.221C98.967 19.6759 98.6584 19.5833 97.8664 19.4187L95.9533 19.0176C93.9681 18.5959 92.9293 17.557 92.9293 16.0039C92.991 13.9879 94.719 12.7022 97.5064 12.7022L97.4447 12.6919ZM113.285 23.0599H110.086V21.157H110.024C109.845 21.7918 109.455 22.3465 108.918 22.7297C108.381 23.1131 107.73 23.302 107.072 23.2656C106.575 23.2818 106.08 23.1927 105.62 23.004C105.16 22.8155 104.744 22.5317 104.402 22.1714C104.058 21.811 103.796 21.3822 103.631 20.9132C103.465 20.4441 103.4 19.9453 103.441 19.4496V12.9387H106.743V18.7399C106.743 19.933 107.37 20.581 108.399 20.581C108.641 20.5792 108.878 20.5256 109.097 20.424C109.316 20.3222 109.511 20.1747 109.667 19.9915C109.825 19.8082 109.941 19.5933 110.008 19.3615C110.073 19.1295 110.09 18.8861 110.055 18.6473V12.9387H113.346L113.285 23.0599ZM114.879 12.9285H118.088V14.8827H118.16C118.337 14.2567 118.718 13.7071 119.24 13.3199C119.764 12.9329 120.4 12.7301 121.05 12.7433C121.704 12.6865 122.355 12.8754 122.875 13.2729C123.397 13.6705 123.75 14.2482 123.869 14.893H124.013C124.218 14.2447 124.632 13.6825 125.19 13.2938C125.748 12.905 126.42 12.7115 127.098 12.7433C127.55 12.7261 128 12.8045 128.419 12.9733C128.839 13.142 129.217 13.3974 129.531 13.7227C129.845 14.048 130.085 14.4358 130.239 14.8608C130.393 15.2858 130.455 15.7384 130.421 16.189V23.0702H127.098V17.0325C127.098 16.0039 126.615 15.4279 125.679 15.4279C125.471 15.4245 125.265 15.4661 125.075 15.5496C124.885 15.6332 124.716 15.7569 124.578 15.9122C124.441 16.0677 124.338 16.2509 124.277 16.4496C124.217 16.6483 124.201 16.8576 124.229 17.0633V23.0702H121.081V17.0016C121.081 15.973 120.577 15.4279 119.672 15.4279C119.462 15.4262 119.255 15.4694 119.063 15.5546C118.871 15.6399 118.7 15.7651 118.56 15.9219C118.421 16.0788 118.317 16.2636 118.256 16.464C118.193 16.6644 118.174 16.8758 118.201 17.0839V23.0702H114.9L114.879 12.9285Z" fill="#697586"/>
<path d="M30.5773 10.5319C30.5774 8.48475 29.9592 6.48527 28.8037 4.79539C27.6482 3.10551 26.0092 1.80401 24.1015 1.06138C22.1938 0.318738 20.1062 0.169596 18.1123 0.633471C16.1184 1.09735 14.311 2.15262 12.927 3.66106H0.0904541V30.7536H27.1933V18.0919C28.257 17.1405 29.1083 15.9754 29.6914 14.6727C30.2745 13.3701 30.5764 11.9592 30.5773 10.5319ZM25.3624 10.5319C25.3645 11.5129 25.0755 12.4724 24.532 13.2891C23.9884 14.1057 23.2149 14.7428 22.3091 15.1196C21.4034 15.4964 20.4063 15.5961 19.4438 15.4059C18.4815 15.2158 17.5971 14.7444 16.9027 14.0515C16.2084 13.3585 15.7352 12.4752 15.5431 11.5132C15.3509 10.5513 15.4485 9.55385 15.8235 8.64737C16.1984 7.74085 16.8338 6.96595 17.6493 6.42074C18.4648 5.87552 19.4238 5.5845 20.4047 5.58449C21.7178 5.58449 22.9773 6.10541 23.9067 7.03293C24.8362 7.96046 25.3598 9.21884 25.3624 10.5319ZM21.9784 25.5388H5.30531V8.87592H10.3864C10.2883 9.4226 10.2367 9.97659 10.2321 10.5319C10.2349 13.229 11.3075 15.8149 13.2147 17.722C15.1218 19.6291 17.7076 20.7018 20.4047 20.7045C20.9321 20.7017 21.4583 20.657 21.9784 20.5708V25.5388Z" fill="#697586"/>
</svg>
