<svg width="158" height="31" viewBox="0 0 158 31" fill="none" xmlns="http://www.w3.org/2000/svg">
<path d="M16.2013 3.51465L11.9534 27.6057" stroke="white" stroke-width="2" stroke-linecap="square"/>
<path d="M16.6666 8.44629L11.4881 22.6741" stroke="white" stroke-width="2" stroke-linecap="square"/>
<path d="M16.01 12.2129L12.1446 18.908" stroke="white" stroke-width="2" stroke-linecap="square"/>
<path d="M22.3417 5.71191L5.8129 25.4101" stroke="white" stroke-width="2" stroke-linecap="square"/>
<path d="M16.4948 13.5322L11.6598 17.5893" stroke="white" stroke-width="2" stroke-linecap="square"/>
<path d="M18.9121 13.8008L9.24248 17.3202" stroke="white" stroke-width="2" stroke-linecap="square"/>
<path d="M27.1257 15.5605L1.02893 15.5605" stroke="white" stroke-width="2" stroke-linecap="square"/>
<path d="M24.6968 17.4326L3.45781 13.6876" stroke="white" stroke-width="2" stroke-linecap="square"/>
<path d="M25.0557 19.5566L3.09886 11.565" stroke="white" stroke-width="2" stroke-linecap="square"/>
<path d="M17.7849 17.7012L10.3697 13.42" stroke="white" stroke-width="2" stroke-linecap="square"/>
<path d="M22.5578 22.6768L5.5968 8.44479" stroke="white" stroke-width="2" stroke-linecap="square"/>
<path d="M17.8651 20.0742L10.2895 11.046" stroke="white" stroke-width="2" stroke-linecap="square"/>
<path d="M17.5447 25.0869L10.6099 6.03389" stroke="white" stroke-width="2" stroke-linecap="square"/>
<path d="M14.5117 18.0244L13.6428 13.0968" stroke="white" stroke-width="2" stroke-linecap="square"/>
<path d="M14.0773 20.9102L14.0773 10.2107" stroke="white" stroke-width="2" stroke-linecap="square"/>
<path d="M12.1809 26.3154L15.9736 4.80591" stroke="white" stroke-width="2" stroke-linecap="square"/>
<path d="M12.9545 17.5049L15.2001 13.6155" stroke="white" stroke-width="2" stroke-linecap="square"/>
<path d="M10.6977 19.5879L17.4569 11.5325" stroke="white" stroke-width="2" stroke-linecap="square"/>
<path d="M10.448 18.6055L17.7066 12.5147" stroke="white" stroke-width="2" stroke-linecap="square"/>
<path d="M2.58838 22.1934L25.5661 8.92714" stroke="white" stroke-width="2" stroke-linecap="square"/>
<path d="M1.89233 17.709L26.2622 13.4119" stroke="white" stroke-width="2" stroke-linecap="square"/>
<path d="M5.58392 15.5605L22.5707 15.5605" stroke="white" stroke-width="2" stroke-linecap="square"/>
<path d="M1.5647 8.33594L26.59 22.7843" stroke="white" stroke-width="2" stroke-linecap="square"/>
<path d="M10.5932 12.6367L17.5614 18.4838" stroke="white" stroke-width="2" stroke-linecap="square"/>
<path d="M12.3749 13.5312L15.7798 17.5891" stroke="white" stroke-width="2" stroke-linecap="square"/>
<path d="M8.57593 6.03223L19.5787 25.0896" stroke="white" stroke-width="2" stroke-linecap="square"/>
<path d="M14.0773 2.66797V28.453" stroke="white" stroke-width="2" stroke-linecap="square"/>
<path d="M14.7438 13.7295L13.4108 17.3918" stroke="white" stroke-width="2" stroke-linecap="square"/>
<path d="M26.5214 8.37598L1.63326 22.7451" stroke="white" stroke-width="2" stroke-linecap="square"/>
<path d="M18.8433 15.5605L9.31127 15.5605" stroke="white" stroke-width="2" stroke-linecap="square"/>
<path d="M40.3173 22.0747H51.0437V19.1538H43.86V5.31836H40.3173V22.0747Z" fill="white"/>
<path d="M58.3113 22.3201C62.1241 22.3201 64.4969 19.7101 64.4969 15.8401C64.4969 11.9456 62.1241 9.34375 58.3113 9.34375C54.4988 9.34375 52.126 11.9456 52.126 15.8401C52.126 19.7101 54.4988 22.3201 58.3113 22.3201ZM58.3276 19.6201C56.5685 19.6201 55.6687 18.0083 55.6687 15.8156C55.6687 13.6229 56.5685 12.0029 58.3276 12.0029C60.054 12.0029 60.9541 13.6229 60.9541 15.8156C60.9541 18.0083 60.054 19.6201 58.3276 19.6201Z" fill="white"/>
<path d="M71.7336 27.0492C75.3256 27.0492 77.8782 25.4128 77.8782 22.1974V9.5074H74.4174V11.6183H74.2866C73.82 10.5956 72.7973 9.34375 70.6946 9.34375C67.9374 9.34375 65.6056 11.4874 65.6056 15.7665C65.6056 19.9474 67.8718 21.8947 70.7029 21.8947C72.7074 21.8947 73.8283 20.8883 74.2866 19.8492H74.4337V22.1483C74.4337 23.8747 73.3291 24.5456 71.8155 24.5456C70.2773 24.5456 69.5 23.8747 69.2136 23.1138L65.9902 23.5474C66.4075 25.5274 68.3464 27.0492 71.7336 27.0492ZM71.8075 19.2765C70.0974 19.2765 69.1646 17.9183 69.1646 15.7501C69.1646 13.6147 70.0811 12.1174 71.8075 12.1174C73.5009 12.1174 74.4501 13.5492 74.4501 15.7501C74.4501 17.9674 73.4846 19.2765 71.8075 19.2765Z" fill="white"/>
<path d="M85.6389 22.3201C89.4517 22.3201 91.8245 19.7101 91.8245 15.8401C91.8245 11.9456 89.4517 9.34375 85.6389 9.34375C81.8261 9.34375 79.4536 11.9456 79.4536 15.8401C79.4536 19.7101 81.8261 22.3201 85.6389 22.3201ZM85.6552 19.6201C83.8962 19.6201 82.9963 18.0083 82.9963 15.8156C82.9963 13.6229 83.8962 12.0029 85.6552 12.0029C87.3816 12.0029 88.2818 13.6229 88.2818 15.8156C88.2818 18.0083 87.3816 19.6201 85.6552 19.6201Z" fill="white"/>
<path d="M93.3996 22.074H96.885V9.50672H93.3996V22.074ZM95.1506 7.88672C96.1896 7.88672 97.0405 7.09309 97.0405 6.11946C97.0405 5.15398 96.1896 4.36035 95.1506 4.36035C94.1196 4.36035 93.2687 5.15398 93.2687 6.11946C93.2687 7.09309 94.1196 7.88672 95.1506 7.88672Z" fill="white"/>
<path d="M98.9858 26.7874H102.471V20.0619H102.578C103.06 21.1092 104.116 22.2792 106.145 22.2792C109.009 22.2792 111.242 20.0128 111.242 15.8074C111.242 11.4874 108.91 9.34375 106.153 9.34375C104.05 9.34375 103.044 10.5956 102.578 11.6183H102.422V9.5074H98.9858V26.7874ZM102.398 15.791C102.398 13.5492 103.347 12.1174 105.041 12.1174C106.767 12.1174 107.683 13.6147 107.683 15.791C107.683 17.9837 106.75 19.5056 105.041 19.5056C103.363 19.5056 102.398 18.0328 102.398 15.791Z" fill="white"/>
<path d="M123.331 13.091C123.02 10.7756 121.155 9.34375 117.98 9.34375C114.765 9.34375 112.646 10.8328 112.654 13.2547C112.646 15.1365 113.832 16.3556 116.287 16.8465L118.463 17.2801C119.559 17.501 120.058 17.9019 120.075 18.5319C120.058 19.2765 119.248 19.8083 118.029 19.8083C116.785 19.8083 115.959 19.2765 115.746 18.2538L112.318 18.4338C112.646 20.8392 114.691 22.3201 118.021 22.3201C121.277 22.3201 123.609 20.6592 123.617 18.1801C123.609 16.3638 122.423 15.2756 119.984 14.7765L117.71 14.3183C116.54 14.0647 116.106 13.6638 116.115 13.0583C116.106 12.3056 116.957 11.8147 118.037 11.8147C119.248 11.8147 119.968 12.4774 120.14 13.2874L123.331 13.091Z" fill="white"/>
<path d="M133.18 16.7232C133.188 18.4087 132.034 19.2923 130.783 19.2923C129.465 19.2923 128.615 18.3677 128.606 16.8868V9.50684H125.121V17.5087C125.129 20.4459 126.847 22.2377 129.376 22.2377C131.265 22.2377 132.624 21.2641 133.188 19.7914H133.319V22.0741H136.665V9.50684H133.18V16.7232Z" fill="white"/>
<path d="M138.762 22.0747H142.248V14.531C142.248 13.1401 143.131 12.2156 144.293 12.2156C145.439 12.2156 146.208 13.001 146.208 14.2365V22.0747H149.587V14.4001C149.587 13.0992 150.331 12.2156 151.6 12.2156C152.712 12.2156 153.547 12.911 153.547 14.3101V22.0747H157.024V13.6229C157.024 10.8983 155.404 9.34375 153.064 9.34375C151.223 9.34375 149.791 10.2847 149.276 11.7247H149.145C148.744 10.2683 147.459 9.34375 145.733 9.34375C144.04 9.34375 142.755 10.2437 142.231 11.7247H142.084V9.5074H138.762V22.0747Z" fill="white"/>
</svg>
