<svg width="155" height="32" viewBox="0 0 155 32" fill="none" xmlns="http://www.w3.org/2000/svg">
<path d="M49.7196 25.283C48.9379 25.3254 48.1647 25.1032 47.5248 24.6521C47.2574 24.4539 47.0423 24.1936 46.898 23.8936C46.7537 23.5936 46.6847 23.2631 46.6968 22.9304V10.747C46.6905 10.6955 46.6958 10.643 46.7128 10.5939C46.7296 10.5447 46.7575 10.5002 46.7943 10.4634C46.8311 10.4266 46.8756 10.3987 46.9248 10.3819C46.974 10.3649 47.0264 10.3595 47.0779 10.3658H49.2859C49.5356 10.3658 49.6539 10.4973 49.6539 10.747V21.9841C49.6539 22.4835 49.8773 22.7333 50.3373 22.7333C50.5324 22.7413 50.7274 22.7192 50.9156 22.6675C51.1785 22.6675 51.3231 22.7464 51.3362 22.983L51.5333 24.6258C51.5428 24.6738 51.5419 24.7231 51.5307 24.7707C51.5195 24.8181 51.4982 24.8628 51.4683 24.9013C51.4384 24.9399 51.4006 24.9718 51.3575 24.9945C51.3142 25.0172 51.2667 25.0305 51.2179 25.0333C50.7343 25.1931 50.2289 25.2773 49.7196 25.283Z" fill="#697586"/>
<path d="M62.1394 23.8772C61.03 24.7939 59.6356 25.2953 58.1965 25.2953C56.7574 25.2953 55.3632 24.7939 54.2536 23.8772C53.2786 22.8928 52.7314 21.5631 52.7314 20.1775C52.7314 18.7918 53.2786 17.4621 54.2536 16.4777C55.3653 15.5658 56.7587 15.0674 58.1965 15.0674C59.6343 15.0674 61.0277 15.5658 62.1394 16.4777C63.0921 17.4712 63.624 18.7944 63.624 20.1709C63.624 21.5473 63.0921 22.8706 62.1394 23.864V23.8772ZM56.3302 22.1423C56.8452 22.6088 57.5149 22.867 58.2097 22.867C58.9044 22.867 59.5743 22.6088 60.0891 22.1423C60.5551 21.6066 60.8117 20.9204 60.8117 20.2103C60.8117 19.5003 60.5551 18.8141 60.0891 18.2783C59.5743 17.812 58.9044 17.5536 58.2097 17.5536C57.5149 17.5536 56.8452 17.812 56.3302 18.2783C55.8643 18.8141 55.6076 19.5003 55.6076 20.2103C55.6076 20.9204 55.8643 21.6066 56.3302 22.1423Z" fill="#697586"/>
<path d="M75.7817 15.3993C76.0315 15.3993 76.1497 15.5307 76.1497 15.7804V25.2039C76.1727 25.84 76.0537 26.4731 75.8013 27.0573C75.549 27.6416 75.1697 28.1623 74.6909 28.5816C73.6282 29.4878 72.2616 29.9574 70.8663 29.8959C69.6062 29.9402 68.3627 29.5961 67.3046 28.9102C66.8527 28.6135 66.4667 28.227 66.1706 27.7749C65.8744 27.3226 65.6744 26.8144 65.5829 26.2816C65.5829 26.0187 65.5829 25.9004 65.9377 25.9004H68.1457C68.2394 25.9036 68.3304 25.934 68.4073 25.9876C68.4843 26.0412 68.5441 26.1159 68.5795 26.2027C68.7227 26.6019 69.0082 26.9343 69.3812 27.1359C69.8358 27.3705 70.3418 27.488 70.8532 27.4776C71.1618 27.4945 71.4706 27.4497 71.7617 27.3459C72.0528 27.2422 72.3203 27.0813 72.5486 26.873C72.7572 26.6551 72.9194 26.3971 73.0256 26.1148C73.1317 25.8325 73.1796 25.5315 73.1663 25.2302V24.4022C72.3758 24.9836 71.4136 25.2843 70.4326 25.2564C69.746 25.2814 69.0615 25.1675 68.42 24.9213C67.7787 24.675 67.1937 24.3019 66.7 23.8239C65.7526 22.8437 65.2229 21.5336 65.2229 20.1702C65.2229 18.8068 65.7526 17.4968 66.7 16.5164C67.196 16.0428 67.7818 15.6732 68.4228 15.4294C69.0639 15.1856 69.7472 15.0726 70.4326 15.097C71.442 15.0703 72.43 15.3905 73.232 16.0039V15.7936C73.226 15.7432 73.2312 15.6921 73.2474 15.644C73.2636 15.596 73.2902 15.5522 73.3255 15.5156C73.3607 15.4791 73.4037 15.451 73.4511 15.4331C73.4987 15.4152 73.5496 15.4082 73.6 15.4124L75.7817 15.3993ZM70.6823 22.917C71.0209 22.9275 71.3577 22.8635 71.6688 22.7295C71.9799 22.5955 72.2579 22.3948 72.4829 22.1416C72.9199 21.5774 73.157 20.8838 73.157 20.1702C73.157 19.4565 72.9199 18.7631 72.4829 18.1987C72.2587 17.949 71.9824 17.7512 71.6737 17.6195C71.3648 17.4878 71.031 17.4254 70.6955 17.4364C70.353 17.4257 70.0123 17.4894 69.6969 17.6233C69.3814 17.7573 69.0989 17.9581 68.8686 18.2119C68.3845 18.7516 68.13 19.4589 68.1589 20.1833C68.1352 20.9006 68.3842 21.6004 68.8555 22.1416C69.0862 22.3947 69.3689 22.5951 69.6842 22.7289C69.9995 22.8627 70.3399 22.9269 70.6823 22.917Z" fill="#697586"/>
<path d="M87.4919 23.8773C86.3803 24.7893 84.9868 25.2876 83.549 25.2876C82.1112 25.2876 80.7178 24.7893 79.6062 23.8773C78.6526 22.8816 78.1204 21.5562 78.1204 20.1776C78.1204 18.799 78.6526 17.4735 79.6062 16.4778C80.7188 15.5682 82.1118 15.0713 83.549 15.0713C84.9862 15.0713 86.3792 15.5682 87.4919 16.4778C88.4446 17.4713 88.9765 18.7945 88.9765 20.171C88.9765 21.5474 88.4446 22.8707 87.4919 23.8641V23.8773ZM81.6696 22.1424C81.9215 22.3821 82.2186 22.5694 82.5435 22.6935C82.8684 22.8176 83.2145 22.876 83.5622 22.8653C83.9076 22.8742 84.2514 22.8151 84.5739 22.691C84.8964 22.5669 85.1912 22.3806 85.4416 22.1424C85.9 21.603 86.1517 20.9183 86.1517 20.2104C86.1517 19.5025 85.9 18.8178 85.4416 18.2784C85.1912 18.0404 84.8964 17.8539 84.5739 17.73C84.2514 17.6059 83.9076 17.5466 83.5622 17.5556C83.2145 17.5449 82.8684 17.6033 82.5435 17.7273C82.2186 17.8514 81.9215 18.0388 81.6696 18.2784C81.2113 18.8178 80.9596 19.5025 80.9596 20.2104C80.9596 20.9183 81.2113 21.603 81.6696 22.1424Z" fill="#697586"/>
<path d="M93.7217 13.1658C93.3743 13.4699 92.9283 13.6375 92.4666 13.6375C92.0049 13.6375 91.5589 13.4699 91.2114 13.1658C91.054 13.0171 90.9285 12.8379 90.8426 12.639C90.7569 12.4402 90.7126 12.2258 90.7126 12.0092C90.7126 11.7926 90.7569 11.5784 90.8426 11.3794C90.9285 11.1805 91.054 11.0013 91.2114 10.8526C91.5625 10.5561 92.0071 10.3936 92.4666 10.3936C92.926 10.3936 93.3707 10.5561 93.7217 10.8526C93.8793 11.0013 94.0048 11.1805 94.0905 11.3794C94.1763 11.5784 94.2205 11.7926 94.2205 12.0092C94.2205 12.2258 94.1763 12.4402 94.0905 12.639C94.0048 12.8379 93.8793 13.0171 93.7217 13.1658ZM93.9977 25.2835C93.2165 25.3219 92.4446 25.1 91.8028 24.6526C91.5396 24.4516 91.3281 24.1903 91.1864 23.8907C91.0446 23.5912 90.9766 23.2621 90.988 22.9309V15.7812C90.9817 15.7297 90.9871 15.6772 91.004 15.6281C91.0208 15.5789 91.0487 15.5344 91.0855 15.4976C91.1223 15.4608 91.1669 15.4329 91.216 15.4161C91.2652 15.3991 91.3176 15.3938 91.3691 15.4001H93.5771C93.8268 15.4001 93.9451 15.5315 93.9451 15.7812V21.9846C93.9451 22.4841 94.1686 22.7338 94.6154 22.7338C94.8148 22.741 95.014 22.7188 95.2068 22.6681C95.4697 22.6681 95.6143 22.7469 95.6274 22.9835L95.8246 24.6264C95.834 24.6743 95.8331 24.7236 95.8219 24.7712C95.8108 24.8186 95.7895 24.8633 95.7595 24.9018C95.7297 24.9405 95.6918 24.9723 95.6487 24.995C95.6055 25.0177 95.5579 25.031 95.5091 25.0338C95.0213 25.1945 94.5115 25.2788 93.9977 25.2835Z" fill="#697586"/>
<path d="M103.947 15.0837C104.637 15.0565 105.325 15.1681 105.97 15.4119C106.616 15.6558 107.206 16.0268 107.706 16.5031C108.635 17.5007 109.152 18.8132 109.152 20.1766C109.152 21.5399 108.635 22.8526 107.706 23.85C107.209 24.3306 106.619 24.7053 105.973 24.9515C105.327 25.1978 104.638 25.3104 103.947 25.2826C102.963 25.3045 101.998 25.0046 101.2 24.4283V29.1728C101.2 29.4226 101.069 29.5408 100.819 29.5408H98.6109C98.5606 29.5503 98.5087 29.5473 98.4596 29.5322C98.4108 29.5169 98.3662 29.4901 98.3299 29.4538C98.2938 29.4176 98.2668 29.3731 98.2517 29.3241C98.2365 29.2752 98.2336 29.2233 98.2429 29.1728V18.3957C98.2584 18.2903 98.249 18.1828 98.2156 18.0816C98.1821 17.9805 98.1253 17.8885 98.05 17.8132C97.9747 17.7379 97.8828 17.6812 97.7816 17.6477C97.6805 17.6142 97.5729 17.6049 97.4675 17.6203H97.0338C96.7446 17.6203 96.6001 17.5151 96.6001 17.3048V15.754C96.5932 15.658 96.6195 15.5626 96.6746 15.4838C96.7295 15.4048 96.81 15.3471 96.9024 15.3203C97.357 15.1551 97.8381 15.0749 98.3218 15.0837C98.8041 15.041 99.2882 15.1434 99.712 15.3774C100.136 15.6116 100.48 15.967 100.701 16.398C101.124 15.9698 101.63 15.6324 102.188 15.4064C102.747 15.1804 103.345 15.0705 103.947 15.0837ZM101.897 22.1414C102.131 22.3864 102.412 22.5813 102.724 22.7144C103.036 22.8476 103.371 22.9162 103.71 22.9162C104.049 22.9162 104.385 22.8476 104.696 22.7144C105.008 22.5813 105.29 22.3864 105.524 22.1414C106.018 21.5909 106.277 20.8694 106.247 20.1306C106.281 19.3911 106.021 18.668 105.524 18.1197C105.29 17.8748 105.008 17.6799 104.696 17.5468C104.385 17.4135 104.049 17.3449 103.71 17.3449C103.371 17.3449 103.036 17.4135 102.724 17.5468C102.412 17.6799 102.131 17.8748 101.897 18.1197C101.418 18.6777 101.17 19.3963 101.2 20.1306C101.173 20.8643 101.422 21.5815 101.897 22.1414Z" fill="#697586"/>
<path d="M115.355 25.2836C114.175 25.3321 113.005 25.0499 111.977 24.4688C111.565 24.2204 111.214 23.8822 110.95 23.4795C110.686 23.0768 110.516 22.6198 110.453 22.1425C110.453 21.8796 110.545 21.7482 110.834 21.7482H112.766C112.858 21.7519 112.947 21.7807 113.023 21.8318C113.1 21.8828 113.161 21.9539 113.199 22.0373C113.475 22.747 114.198 23.1019 115.355 23.1019C115.758 23.1204 116.16 23.0391 116.525 22.8653C116.651 22.8086 116.758 22.7187 116.837 22.6052C116.916 22.4918 116.962 22.3591 116.971 22.2213C116.971 21.8796 116.761 21.643 116.341 21.4853C115.842 21.3193 115.326 21.2091 114.803 21.1568C114.183 21.0866 113.569 20.9768 112.963 20.8282C112.374 20.6949 111.838 20.3882 111.425 19.9476C111.182 19.6482 111.003 19.3019 110.899 18.9304C110.795 18.5588 110.769 18.1698 110.822 17.7877C110.875 17.4055 111.006 17.0383 111.207 16.7091C111.408 16.3797 111.675 16.0953 111.99 15.8733C112.938 15.2699 114.049 14.9759 115.171 15.0322C116.257 14.9955 117.332 15.2642 118.273 15.8076C118.652 16.0225 118.978 16.3191 119.229 16.6761C119.479 17.0331 119.646 17.4413 119.718 17.871C119.718 18.1339 119.6 18.2653 119.363 18.2653H117.418C117.336 18.2702 117.255 18.2502 117.185 18.208C117.114 18.1658 117.058 18.1033 117.024 18.0288C116.894 17.7175 116.649 17.4681 116.341 17.3322C115.992 17.15 115.603 17.0595 115.21 17.0693C114.825 17.0484 114.441 17.1253 114.093 17.2928C113.971 17.3401 113.865 17.4229 113.79 17.5306C113.715 17.6384 113.674 17.7662 113.673 17.8973C113.681 18.0771 113.747 18.2494 113.86 18.389C113.974 18.5286 114.129 18.6279 114.303 18.6728C114.808 18.8631 115.333 18.9953 115.867 19.067C116.482 19.148 117.092 19.2621 117.694 19.4088C118.283 19.5422 118.819 19.8488 119.232 20.2893C119.453 20.5321 119.624 20.8161 119.734 21.1252C119.845 21.4342 119.893 21.7621 119.876 22.0899C119.887 22.5443 119.781 22.9937 119.567 23.3946C119.352 23.7953 119.038 24.1337 118.654 24.3768C117.672 25.0072 116.521 25.3234 115.355 25.2836Z" fill="#697586"/>
<path d="M133.768 24.6267C133.776 24.6733 133.773 24.721 133.763 24.7669C133.751 24.8129 133.731 24.856 133.702 24.894C133.675 24.932 133.639 24.9639 133.599 24.988C133.558 25.012 133.513 25.0277 133.466 25.0341C132.986 25.1908 132.485 25.275 131.981 25.2838C131.481 25.3356 130.977 25.2575 130.517 25.0572C130.055 24.8569 129.654 24.5411 129.352 24.1404C128.424 24.9386 127.223 25.3481 126.001 25.2838C125.433 25.31 124.866 25.2171 124.337 25.0111C123.807 24.8052 123.326 24.4906 122.925 24.0878C122.527 23.6658 122.218 23.1677 122.017 22.6234C121.816 22.0792 121.727 21.5 121.756 20.9204V15.7815C121.756 15.5318 121.874 15.4004 122.124 15.4004H124.332C124.581 15.4004 124.7 15.5318 124.7 15.7815V20.5261C124.676 21.1173 124.877 21.6953 125.265 22.1427C125.458 22.3477 125.693 22.5088 125.953 22.6154C126.214 22.722 126.495 22.7714 126.776 22.7604C127.064 22.773 127.352 22.7285 127.623 22.6291C127.893 22.5299 128.142 22.3779 128.353 22.1821C128.553 21.9758 128.709 21.7305 128.811 21.4615C128.913 21.1924 128.958 20.9054 128.945 20.6181V15.7815C128.945 15.5318 129.063 15.4004 129.313 15.4004H131.547C131.797 15.4004 131.915 15.5318 131.915 15.7815V21.9718C131.915 22.4844 132.138 22.7341 132.572 22.7341C132.776 22.742 132.98 22.7199 133.177 22.6684C133.227 22.6545 133.279 22.652 133.329 22.6612C133.38 22.6702 133.428 22.6907 133.47 22.7211C133.512 22.7515 133.546 22.7909 133.571 22.8364C133.595 22.8818 133.608 22.9323 133.61 22.9838L133.768 24.6267Z" fill="#697586"/>
<path d="M154.652 24.6259C154.664 24.6729 154.665 24.7221 154.656 24.7697C154.645 24.8171 154.626 24.8621 154.597 24.901C154.568 24.9399 154.531 24.9719 154.488 24.9948C154.446 25.0178 154.398 25.0309 154.35 25.0333C153.861 25.1922 153.352 25.2764 152.838 25.283C152.056 25.3234 151.285 25.1014 150.643 24.6522C150.366 24.4598 150.141 24.202 149.988 23.9017C149.834 23.6014 149.756 23.2677 149.763 22.9304V19.8419C149.79 19.2525 149.593 18.6747 149.211 18.2253C149.027 18.0199 148.798 17.858 148.545 17.7511C148.29 17.6444 148.015 17.5954 147.739 17.6076C147.49 17.5983 147.243 17.6454 147.015 17.7456C146.787 17.8457 146.586 17.9964 146.425 18.1859C146.078 18.6263 145.9 19.1767 145.925 19.7367V24.5864C145.925 24.8362 145.807 24.9676 145.557 24.9676H143.336C143.285 24.974 143.232 24.9685 143.184 24.9517C143.134 24.9347 143.089 24.9069 143.052 24.8701C143.015 24.8334 142.988 24.7887 142.971 24.7396C142.954 24.6904 142.948 24.6381 142.955 24.5864V19.8419C142.984 19.259 142.801 18.6852 142.442 18.2253C142.282 18.0321 142.081 17.8766 141.853 17.7699C141.627 17.6632 141.379 17.6077 141.128 17.6076C140.86 17.5968 140.593 17.6427 140.343 17.7424C140.094 17.8421 139.869 17.9932 139.682 18.1859C139.306 18.6122 139.113 19.1692 139.143 19.7367V24.5864C139.15 24.6381 139.145 24.6904 139.128 24.7396C139.111 24.7887 139.083 24.8334 139.046 24.8701C139.009 24.9069 138.965 24.9347 138.916 24.9517C138.866 24.9685 138.814 24.974 138.762 24.9676H136.62C136.37 24.9676 136.252 24.8362 136.252 24.5864V18.3962C136.268 18.2908 136.259 18.1832 136.224 18.082C136.192 17.981 136.135 17.889 136.059 17.8137C135.984 17.7384 135.892 17.6817 135.791 17.6482C135.689 17.6147 135.582 17.6054 135.477 17.6207H135.043C134.754 17.6207 134.609 17.5156 134.609 17.3053V15.7544C134.603 15.6585 134.629 15.5631 134.684 15.4842C134.739 15.4052 134.819 15.3475 134.911 15.3207C135.366 15.1555 135.847 15.0754 136.331 15.0842C136.795 15.0446 137.261 15.1371 137.675 15.3511C138.089 15.5651 138.434 15.8917 138.67 16.2933C139.113 15.8731 139.639 15.5488 140.213 15.3407C140.788 15.1327 141.399 15.0454 142.009 15.0842C142.601 15.0552 143.191 15.1663 143.733 15.4084C144.274 15.6505 144.75 16.0166 145.123 16.4773C145.558 16.0046 146.093 15.6345 146.689 15.3934C147.284 15.1525 147.925 15.047 148.567 15.0842C149.14 15.0573 149.713 15.1497 150.249 15.3557C150.785 15.5615 151.273 15.8763 151.682 16.2802C152.081 16.7014 152.39 17.1994 152.591 17.7439C152.792 18.2883 152.882 18.868 152.851 19.4476V21.9842C152.851 22.4836 153.075 22.7333 153.495 22.7333C153.699 22.7428 153.903 22.7207 154.1 22.6676C154.372 22.6676 154.517 22.7727 154.534 22.983L154.652 24.6259Z" fill="#697586"/>
<path d="M0.538857 13.6914C1.5085 9.79418 3.75416 6.33327 6.91827 3.85997C10.0824 1.38662 13.9831 0.0429688 17.9991 0.0429688C22.0152 0.0429688 25.9159 1.38662 29.08 3.85997C32.2442 6.33327 34.4897 9.79418 35.4594 13.6914H33.8823C31.2218 13.6523 28.6158 14.4474 26.4303 15.9652C26.3041 16.0565 26.1724 16.14 26.036 16.2149H25.852C25.7156 16.14 25.5839 16.0565 25.4577 15.9652C23.2529 14.4825 20.6561 13.6906 17.9991 13.6906C15.3422 13.6906 12.7454 14.4825 10.5406 15.9652C10.4144 16.0565 10.2827 16.14 10.1463 16.2149H9.96229C9.82586 16.14 9.69417 16.0565 9.568 15.9652C7.38247 14.4474 4.77651 13.6523 2.116 13.6914H0.538857ZM31.0434 21.932C31.853 21.3015 32.8565 20.9717 33.8823 20.9989H35.9983V16.78H33.8823C32.0754 16.7582 30.3099 17.3206 28.8486 18.3834C28.0262 18.9897 27.0314 19.3168 26.0097 19.3168C24.988 19.3168 23.9932 18.9897 23.1709 18.3834C21.6724 17.3404 19.8905 16.7812 18.0649 16.7812C16.2392 16.7812 14.4573 17.3404 12.9589 18.3834C12.1365 18.9897 11.1417 19.3168 10.12 19.3168C9.09827 19.3168 8.10349 18.9897 7.28114 18.3834C5.80178 17.3069 4.01094 16.7439 2.18171 16.78H0V20.9989H2.116C3.14181 20.9717 4.14526 21.3015 4.95486 21.932C6.45051 22.9758 8.23045 23.5354 10.0543 23.5354C11.8781 23.5354 13.6581 22.9758 15.1537 21.932C15.9644 21.3035 16.967 20.9739 17.9926 20.9989C19.0188 20.9694 20.0229 21.2996 20.8314 21.932C22.3298 22.9752 24.1118 23.5343 25.9374 23.5343C27.7631 23.5343 29.545 22.9752 31.0434 21.932ZM31.0434 29.476C31.853 28.8456 32.8565 28.5157 33.8823 28.5429H35.9983V24.324H33.8823C32.0754 24.3022 30.3099 24.8646 28.8486 25.9274C28.0262 26.5337 27.0314 26.8608 26.0097 26.8608C24.988 26.8608 23.9932 26.5337 23.1709 25.9274C21.6724 24.8844 19.8905 24.3253 18.0649 24.3253C16.2392 24.3253 14.4573 24.8844 12.9589 25.9274C12.1365 26.5337 11.1417 26.8608 10.12 26.8608C9.09827 26.8608 8.10349 26.5337 7.28114 25.9274C5.80178 24.851 4.01094 24.2879 2.18171 24.324H0V28.5429H2.116C3.14181 28.5157 4.14526 28.8456 4.95486 29.476C6.45051 30.5198 8.23045 31.0794 10.0543 31.0794C11.8781 31.0794 13.6581 30.5198 15.1537 29.476C15.9644 28.8475 16.967 28.5179 17.9926 28.5429C19.0188 28.5134 20.0229 28.8436 20.8314 29.476C22.3298 30.5192 24.1118 31.0783 25.9374 31.0783C27.7631 31.0783 29.545 30.5192 31.0434 29.476Z" fill="#697586"/>
</svg>
