<svg width="147" height="36" viewBox="0 0 147 36" fill="none" xmlns="http://www.w3.org/2000/svg">
<path d="M43.0392 24.6113H53.5336V21.4503H46.7691V9.54395H43.0392V24.6113Z" fill="#697586"/>
<path d="M59.7513 22.5035C58.2551 22.5035 57.4754 21.197 57.4754 19.2372C57.4754 17.2774 58.2551 15.9498 59.7513 15.9498C61.2475 15.9498 62.0482 17.2774 62.0482 19.2372C62.0482 21.197 61.2475 22.5035 59.7513 22.5035ZM59.7723 24.948C63.2494 24.948 65.5253 22.4825 65.5253 19.2372C65.5253 15.9919 63.2494 13.5264 59.7723 13.5264C56.3163 13.5264 53.9983 15.9919 53.9983 19.2372C53.9983 22.4825 56.3163 24.948 59.7723 24.948Z" fill="#697586"/>
<path d="M71.5438 28.3414C73.1454 28.3414 74.5573 27.9831 75.5056 27.1402C76.3696 26.3605 76.9385 25.1804 76.9385 23.5578V13.822H73.6511V14.981H73.609C72.9768 14.0748 72.0074 13.5059 70.5744 13.5059C67.8981 13.5059 66.0437 15.7396 66.0437 18.9006C66.0437 22.2091 68.2985 24.0214 70.7219 24.0214C72.0285 24.0214 72.8503 23.4945 73.4825 22.7781H73.5668V23.8528C73.5668 25.1593 72.9557 25.918 71.5017 25.918C70.3637 25.918 69.7947 25.4333 69.6051 24.8643H66.2755C66.6127 27.1191 68.5725 28.3414 71.5438 28.3414ZM71.5227 21.4715C70.2373 21.4715 69.3943 20.4179 69.3943 18.7952C69.3943 17.1515 70.2373 16.0979 71.5227 16.0979C72.9557 16.0979 73.7143 17.3201 73.7143 18.7742C73.7143 20.2914 73.0189 21.4715 71.5227 21.4715Z" fill="#697586"/>
<path d="M83.6982 22.5035C82.202 22.5035 81.4223 21.197 81.4223 19.2372C81.4223 17.2774 82.202 15.9498 83.6982 15.9498C85.1944 15.9498 85.9951 17.2774 85.9951 19.2372C85.9951 21.197 85.1944 22.5035 83.6982 22.5035ZM83.7192 24.948C87.1963 24.948 89.4718 22.4825 89.4718 19.2372C89.4718 15.9919 87.1963 13.5264 83.7192 13.5264C80.2632 13.5264 77.9452 15.9919 77.9452 19.2372C77.9452 22.4825 80.2632 24.948 83.7192 24.948Z" fill="#697586"/>
<path d="M90.4753 24.6113H93.9103V13.8218H90.4753V24.6113ZM90.4753 12.3256H93.9103V9.54395H90.4753V12.3256Z" fill="#697586"/>
<path d="M95.4003 28.1728H98.8352V23.4945H98.8773C99.5517 24.4007 100.542 24.9486 101.933 24.9486C104.757 24.9486 106.632 22.7148 106.632 19.2167C106.632 15.9714 104.883 13.5059 102.017 13.5059C100.542 13.5059 99.4885 14.1591 98.7509 15.1285H98.6877V13.822H95.4003V28.1728ZM101.048 22.2934C99.5728 22.2934 98.7298 21.0922 98.7298 19.3431C98.7298 17.5941 99.4885 16.2664 100.985 16.2664C102.46 16.2664 103.155 17.4887 103.155 19.3431C103.155 21.1765 102.354 22.2934 101.048 22.2934Z" fill="#697586"/>
<path d="M112.225 24.9486C115.048 24.9486 117.135 23.7263 117.135 21.3662C117.135 18.6056 114.901 18.1209 113.004 17.8048C111.635 17.5519 110.412 17.4465 110.412 16.6879C110.412 16.0136 111.066 15.6975 111.909 15.6975C112.857 15.6975 113.51 15.9925 113.637 16.9619H116.798C116.629 14.8335 114.985 13.5059 111.93 13.5059C109.38 13.5059 107.272 14.686 107.272 16.9619C107.272 19.4906 109.274 19.9964 111.15 20.3125C112.583 20.5654 113.889 20.6707 113.889 21.6401C113.889 22.3355 113.236 22.7148 112.204 22.7148C111.066 22.7148 110.349 22.188 110.223 21.1133H106.977C107.083 23.4945 109.064 24.9486 112.225 24.9486Z" fill="#697586"/>
<path d="M121.801 24.9278C123.297 24.9278 124.245 24.3378 125.025 23.2841H125.088V24.6117H128.375V13.8223H124.941V19.8492C124.941 21.1347 124.224 22.0197 123.044 22.0197C121.948 22.0197 121.421 21.3665 121.421 20.1864V13.8223H118.007V20.9028C118.007 23.3052 119.314 24.9278 121.801 24.9278Z" fill="#697586"/>
<path d="M129.87 24.6114H133.305V18.5634C133.305 17.278 133.937 16.3718 135.012 16.3718C136.044 16.3718 136.529 17.0462 136.529 18.2052V24.6114H139.964V18.5634C139.964 17.278 140.575 16.3718 141.671 16.3718C142.703 16.3718 143.188 17.0462 143.188 18.2052V24.6114H146.623V17.5941C146.623 15.1706 145.401 13.5059 142.956 13.5059C141.565 13.5059 140.406 14.0959 139.564 15.4024H139.521C138.973 14.2434 137.899 13.5059 136.487 13.5059C134.927 13.5059 133.895 14.2434 133.221 15.3603H133.157V13.822H129.87V24.6114Z" fill="#697586"/>
<path d="M22.0823 0.92534L18.6289 0L15.7187 10.8611L13.0913 1.05562L9.63785 1.98097L12.4766 12.575L5.40597 5.50447L2.8779 8.03254L10.6335 15.7882L0.975143 13.2002L0.0498047 16.6536L10.6027 19.4812C10.4819 18.9601 10.418 18.4171 10.418 17.8592C10.418 13.9101 13.6194 10.7087 17.5685 10.7087C21.5176 10.7087 24.719 13.9101 24.719 17.8592C24.719 18.4135 24.6558 18.9532 24.5365 19.4712L34.1272 22.041L35.0525 18.5877L24.4576 15.7487L34.1165 13.1606L33.1912 9.70724L22.5967 12.546L29.6673 5.47544L27.1392 2.94737L19.4912 10.5954L22.0823 0.92534Z" fill="#697586"/>
<path d="M24.5271 19.5117C24.2311 20.7635 23.606 21.888 22.7483 22.7889L29.6963 29.737L32.2244 27.209L24.5271 19.5117Z" fill="#697586"/>
<path d="M22.678 22.8613C21.81 23.7479 20.7131 24.4095 19.4829 24.7504L22.0112 34.186L25.4645 33.2606L22.678 22.8613Z" fill="#697586"/>
<path d="M19.3539 24.7854C18.7832 24.9321 18.185 25.0101 17.5685 25.0101C16.908 25.0101 16.2684 24.9205 15.6613 24.7529L13.1307 34.197L16.5841 35.1223L19.3539 24.7854Z" fill="#697586"/>
<path d="M15.5392 24.7178C14.3278 24.3599 13.2503 23.6899 12.4 22.8008L5.43494 29.7659L7.96301 32.294L15.5392 24.7178Z" fill="#697586"/>
<path d="M12.3419 22.7386C11.5062 21.8439 10.8974 20.7344 10.6077 19.502L0.985718 22.0802L1.91105 25.5335L12.3419 22.7386Z" fill="#697586"/>
</svg>
